<svg width="24" height="24" viewBox="0 0 24 24" fill="none" xmlns="http://www.w3.org/2000/svg">
<path d="M15.0002 12L6.62718 20.373C6.22935 20.7708 5.68979 20.9943 5.12718 20.9943C4.56457 20.9943 4.025 20.7708 3.62718 20.373C3.22936 19.9752 3.00586 19.4356 3.00586 18.873C3.00586 18.3104 3.22936 17.7708 3.62718 17.373L12.0002 9" stroke="#303038" stroke-width="2" stroke-linecap="round" stroke-linejoin="round"/>
<path d="M18 15L22 11" stroke="#303038" stroke-width="2" stroke-linecap="round" stroke-linejoin="round"/>
<path d="M21.5 11.5L19.586 9.58601C19.2109 9.21102 19.0001 8.7024 19 8.17201V7.00001L16.74 4.74001C15.6245 3.62519 14.115 2.99437 12.538 2.98401L9 2.96001L9.92 3.78001C10.5735 4.3594 11.0967 5.07071 11.4552 5.86705C11.8137 6.66339 11.9994 7.52668 12 8.40001V10L14 12H15.172C15.7024 12.0001 16.211 12.2109 16.586 12.586L18.5 14.5" stroke="#303038" stroke-width="2" stroke-linecap="round" stroke-linejoin="round"/>
</svg>
