<svg width="29" height="26" viewBox="0 0 29 26" fill="none" xmlns="http://www.w3.org/2000/svg">
<path d="M6.0415 5.95832C6.0415 4.95271 6.48708 3.98829 7.2802 3.27721C8.07332 2.56613 9.14903 2.16666 10.2707 2.16666H14.4998V9.74999H10.2707C9.14903 9.74999 8.07332 9.35051 7.2802 8.63944C6.48708 7.92836 6.0415 6.96394 6.0415 5.95832Z" stroke="#303038" stroke-width="2" stroke-linecap="round" stroke-linejoin="round"/>
<path d="M14.5 2.16666H18.7292C19.2845 2.16666 19.8345 2.26473 20.3476 2.45528C20.8607 2.64583 21.3269 2.92512 21.7196 3.27721C22.1124 3.6293 22.4239 4.04729 22.6364 4.50732C22.8489 4.96734 22.9583 5.46039 22.9583 5.95832C22.9583 6.45625 22.8489 6.94931 22.6364 7.40933C22.4239 7.86936 22.1124 8.28735 21.7196 8.63944C21.3269 8.99153 20.8607 9.27082 20.3476 9.46137C19.8345 9.65192 19.2845 9.74999 18.7292 9.74999H14.5V2.16666Z" stroke="#303038" stroke-width="2" stroke-linecap="round" stroke-linejoin="round"/>
<path d="M14.5 13.5417C14.5 13.0437 14.6094 12.5507 14.8219 12.0907C15.0345 11.6306 15.346 11.2126 15.7387 10.8606C16.1314 10.5085 16.5976 10.2292 17.1107 10.0386C17.6238 9.84807 18.1738 9.75 18.7292 9.75C19.2845 9.75 19.8345 9.84807 20.3476 10.0386C20.8607 10.2292 21.3269 10.5085 21.7196 10.8606C22.1124 11.2126 22.4239 11.6306 22.6364 12.0907C22.8489 12.5507 22.9583 13.0437 22.9583 13.5417C22.9583 14.0396 22.8489 14.5326 22.6364 14.9927C22.4239 15.4527 22.1124 15.8707 21.7196 16.2228C21.3269 16.5749 20.8607 16.8542 20.3476 17.0447C19.8345 17.2353 19.2845 17.3333 18.7292 17.3333C18.1738 17.3333 17.6238 17.2353 17.1107 17.0447C16.5976 16.8542 16.1314 16.5749 15.7387 16.2228C15.346 15.8707 15.0345 15.4527 14.8219 14.9927C14.6094 14.5326 14.5 14.0396 14.5 13.5417Z" stroke="#303038" stroke-width="2" stroke-linecap="round" stroke-linejoin="round"/>
<path d="M6.0415 21.125C6.0415 20.1194 6.48708 19.155 7.2802 18.4439C8.07332 17.7328 9.14903 17.3333 10.2707 17.3333H14.4998V21.125C14.4998 22.1306 14.0543 23.095 13.2611 23.8061C12.468 24.5172 11.3923 24.9167 10.2707 24.9167C9.14903 24.9167 8.07332 24.5172 7.2802 23.8061C6.48708 23.095 6.0415 22.1306 6.0415 21.125Z" stroke="#303038" stroke-width="2" stroke-linecap="round" stroke-linejoin="round"/>
<path d="M6.0415 13.5417C6.0415 12.5361 6.48708 11.5716 7.2802 10.8606C8.07332 10.1495 9.14903 9.75 10.2707 9.75H14.4998V17.3333H10.2707C9.14903 17.3333 8.07332 16.9339 7.2802 16.2228C6.48708 15.5117 6.0415 14.5473 6.0415 13.5417Z" stroke="#303038" stroke-width="2" stroke-linecap="round" stroke-linejoin="round"/>
</svg>
