<svg width="24" height="24" viewBox="0 0 24 24" fill="none" xmlns="http://www.w3.org/2000/svg">
<path d="M14.6999 6.30001C14.5166 6.48694 14.414 6.73826 14.414 7.00001C14.414 7.26176 14.5166 7.51308 14.6999 7.70001L16.2999 9.30001C16.4868 9.48324 16.7381 9.58587 16.9999 9.58587C17.2616 9.58587 17.5129 9.48324 17.6999 9.30001L21.4699 5.53001C21.9727 6.6412 22.1249 7.87924 21.9063 9.07916C21.6877 10.2791 21.1086 11.3839 20.2461 12.2463C19.3837 13.1087 18.2789 13.6878 17.079 13.9065C15.8791 14.1251 14.641 13.9728 13.5299 13.47L6.61986 20.38C6.22203 20.7778 5.68246 21.0013 5.11986 21.0013C4.55725 21.0013 4.01768 20.7778 3.61986 20.38C3.22203 19.9822 2.99854 19.4426 2.99854 18.88C2.99854 18.3174 3.22203 17.7778 3.61986 17.38L10.5299 10.47C10.027 9.35882 9.87477 8.12078 10.0934 6.92087C10.312 5.72095 10.8911 4.61617 11.7536 3.75373C12.616 2.8913 13.7208 2.31218 14.9207 2.09355C16.1206 1.87493 17.3587 2.02718 18.4699 2.53001L14.7099 6.29001L14.6999 6.30001Z" stroke="#303038" stroke-width="2" stroke-linecap="round" stroke-linejoin="round"/>
</svg>
